# xmcd
#
# Track frame offsets: 
#        19600
#        32635
#        58656
#        82612
#        93937
#        108245
#        122354
#        130225
#        140239
#        154534
#        163218
#        176214
#        203472
#        220626
#        230027
#
# Disc length: 3295 seconds
#
# Revision: 0
# Processed by: cddbd v1.5.2PL0 Copyright (c) Steve Scherf et al.
# Submitted via: ExactAudioCopy v0.99pb5
#
DISCID=c90bda0f
DTITLE=Hannibal Buress - My Name Is Hannibal
DYEAR=2010
DGENRE=Comedy
TTITLE0=I Don't Know You Either
TTITLE1=Stuff About Rap and Some Other Things
TTITLE2=My Name Is Hannibal
TTITLE3=Metal Arms
TTITLE4=I Play Video Games
TTITLE5=Weed and Things
TTITLE6=Fire SUV
TTITLE7=Balling Out of Control
TTITLE8=In the Streets
TTITLE9=Pickle Juice
TTITLE10=It's Hard Out Here
TTITLE11=I'm 'Bout It 'Bout It
TTITLE12=Men and Women Are Vastly Different from Each Other
TTITLE13=Pigeons Get Murked
TTITLE14=Family Stuff
EXTD=
EXTT0=
EXTT1=
EXTT2=
EXTT3=
EXTT4=
EXTT5=
EXTT6=
EXTT7=
EXTT8=
EXTT9=
EXTT10=
EXTT11=
EXTT12=
EXTT13=
EXTT14=
PLAYORDER=
